<svg xmlns="http://www.w3.org/2000/svg" viewBox="0 0 200 200">
  <defs>
    <radialGradient id="bodyGradient" cx="50%" cy="30%" r="70%">
      <stop offset="0%" stop-color="#2a2a2a"/>
      <stop offset="100%" stop-color="#0d0d0d"/>
    </radialGradient>
    <radialGradient id="wingGradient" cx="50%" cy="50%" r="50%">
      <stop offset="0%" stop-color="#6b2d9e"/>
      <stop offset="100%" stop-color="#3d1a5c"/>
    </radialGradient>
    <filter id="shadow" x="-50%" y="-50%" width="200%" height="200%">
      <feDropShadow dx="4" dy="8" stdDeviation="6" flood-opacity="0.4"/>
    </filter>
  </defs>
  
  <g filter="url(#shadow)">
    <ellipse cx="100" cy="170" rx="40" ry="8" fill="#000" opacity="0.3"/>
    
    <path d="M80 140 Q100 160 120 140 Q140 130 150 140 Q160 150 150 160 Q140 175 120 165 Q100 155 80 165 Q60 175 50 160 Q40 150 50 140 Q60 130 80 140" fill="url(#bodyGradient)"/>
    
    <ellipse cx="60" cy="145" rx="15" ry="18" fill="url(#bodyGradient)" transform="rotate(-15 60 145)"/>
    <ellipse cx="140" cy="145" rx="15" ry="18" fill="url(#bodyGradient)" transform="rotate(15 140 145)"/>
    
    <ellipse cx="65" cy="165" rx="12" ry="14" fill="url(#bodyGradient)"/>
    <ellipse cx="135" cy="165" rx="12" ry="14" fill="url(#bodyGradient)"/>
    
    <path d="M100 80 Q120 60 150 70 Q180 80 170 100 Q160 120 140 110 Q120 100 100 90" fill="url(#wingGradient)" opacity="0.9"/>
    <path d="M100 80 Q80 60 50 70 Q20 80 30 100 Q40 120 60 110 Q80 100 100 90" fill="url(#wingGradient)" opacity="0.9"/>
    
    <path d="M100 80 L95 60 L105 55 L100 70" fill="#1a1a1a"/>
    <path d="M90 70 L85 50 L95 45 L90 65" fill="#1a1a1a"/>
    <path d="M110 70 L115 50 L105 45 L110 65" fill="#1a1a1a"/>
    <path d="M80 60 L75 40 L85 35 L80 55" fill="#1a1a1a"/>
    <path d="M120 60 L125 40 L115 35 L120 55" fill="#1a1a1a"/>
    
    <ellipse cx="100" cy="100" rx="45" ry="40" fill="url(#bodyGradient)"/>
    
    <circle cx="100" cy="70" r="25" fill="#1a1a1a"/>
    
    <ellipse cx="75" cy="95" rx="12" ry="16" fill="#ffcc00"/>
    <ellipse cx="125" cy="95" rx="12" ry="16" fill="#ffcc00"/>
    
    <circle cx="77" cy="93" r="5" fill="#1a1a1a"/>
    <circle cx="127" cy="93" r="5" fill="#1a1a1a"/>
    
    <circle cx="78" cy="91" r="2" fill="#fff"/>
    <circle cx="128" cy="91" r="2" fill="#fff"/>
    
    <path d="M85 115 Q100 125 115 115" stroke="#333" stroke-width="3" fill="none"/>
    
    <path d="M70 85 Q60 90 65 100" stroke="#1a1a1a" stroke-width="3" fill="none"/>
    <path d="M130 85 Q140 90 135 100" stroke="#1a1a1a" stroke-width="3" fill="none"/>
    
    <ellipse cx="55" cy="100" rx="8" ry="6" fill="#9966cc"/>
    <ellipse cx="145" cy="100" rx="8" ry="6" fill="#9966cc"/>
    
    <path d="M140 140 Q160 135 175 145 Q190 155 180 165 Q170 175 150 165" fill="url(#bodyGradient)"/>
    
    <rect x="85" y="120" width="30" height="40" rx="5" fill="#3d3d3d"/>
    <circle cx="100" cy="145" r="5" fill="#ffcc00"/>
  </g>
</svg>